<svg version="1.2" xmlns="http://www.w3.org/2000/svg" viewBox="0 0 140 106" width="140" height="106">
	<title>up_todo_logo-svg</title>
	<style>
		.s0 { fill: #247cff } 
	</style>
	<path id="Layer" class="s0" d="m103.3 61.7v18.2q0 6.8-4.8 11.6-4.9 4.9-11.7 4.9h-47.5q-6.8 0-11.6-4.9-4.9-4.8-4.9-11.6v-47.6q0-6.8 4.9-11.6 4.8-4.8 11.6-4.8h47.5q3.6 0 6.7 1.4 0.9 0.4 1 1.3 0.2 1-0.5 1.7l-2.8 2.8q-0.5 0.6-1.3 0.6-0.2 0-0.5-0.2-1.3-0.3-2.6-0.3h-47.5q-3.8 0-6.5 2.7-2.7 2.7-2.7 6.4v47.6q0 3.8 2.7 6.5 2.7 2.6 6.5 2.6h47.5q3.8 0 6.5-2.6 2.7-2.7 2.7-6.5v-14.5q0-0.8 0.5-1.3l3.6-3.6q0.6-0.6 1.4-0.6 0.3 0 0.6 0.2 1.2 0.4 1.2 1.6zm13.2-27.9l-46.5 46.5q-1.4 1.4-3.3 1.4-1.9 0-3.2-1.4l-24.6-24.6q-1.4-1.3-1.4-3.2 0-1.9 1.4-3.3l6.3-6.3q1.3-1.4 3.2-1.4 1.9 0 3.3 1.4l15 15.1 37-37q1.4-1.4 3.2-1.4 1.9 0 3.3 1.4l6.3 6.3q1.4 1.3 1.4 3.2 0 1.9-1.4 3.3z"/>
</svg>